<svg width="390" height="668" viewBox="0 0 390 668" fill="none" xmlns="http://www.w3.org/2000/svg">
<g opacity="0.75">
<path d="M78.3342 27.9711C59.4301 42.2024 19.6223 72.0484 11.6235 77.5823L54.7212 29.57L78.3342 27.9711Z" stroke="#CD5137" stroke-width="4" stroke-linecap="square" stroke-linejoin="round"/>
<path d="M55.9192 3.00015C43.0764 24.1725 16.1424 68.7568 11.1484 77.7153L54.4763 29.4465L55.9192 3.00015Z" stroke="#CD5137" stroke-width="4" stroke-linecap="square" stroke-linejoin="round"/>
</g>
<g opacity="0.75">
<path d="M156.668 102.686C137.764 116.918 97.9563 146.764 89.9575 152.298L133.055 104.285L156.668 102.686Z" stroke="#B78A2E" stroke-width="4" stroke-linecap="square" stroke-linejoin="round"/>
<path d="M134.253 77.7152C121.41 98.8876 94.4764 143.472 89.4824 152.43L132.81 104.162L134.253 77.7152Z" stroke="#B78A2E" stroke-width="4" stroke-linecap="square" stroke-linejoin="round"/>
</g>
<g opacity="0.75">
<path d="M235.002 177.402C216.098 191.633 176.29 221.479 168.292 227.013L211.389 179L235.002 177.402Z" stroke="#194E35" stroke-width="4" stroke-linecap="square" stroke-linejoin="round"/>
<path d="M212.588 152.431C199.745 173.603 172.811 218.187 167.817 227.146L211.145 178.877L212.588 152.431Z" stroke="#194E35" stroke-width="4" stroke-linecap="square" stroke-linejoin="round"/>
</g>
<g opacity="0.75">
<path d="M313.337 252.117C294.433 266.348 254.625 296.194 246.626 301.728L289.724 253.716L313.337 252.117Z" stroke="#B4872B" stroke-width="4" stroke-linecap="square" stroke-linejoin="round"/>
<path d="M290.922 227.146C278.079 248.318 251.145 292.902 246.151 301.861L289.479 253.592L290.922 227.146Z" stroke="#B4872B" stroke-width="4" stroke-linecap="square" stroke-linejoin="round"/>
</g>
<g opacity="0.75">
<path d="M78.3337 114.907C59.4296 129.138 19.6218 158.984 11.623 164.518L54.7207 116.506L78.3337 114.907Z" stroke="#164932" stroke-width="4" stroke-linecap="square" stroke-linejoin="round"/>
<path d="M55.9192 89.9357C43.0764 111.108 16.1424 155.692 11.1484 164.651L54.4763 116.382L55.9192 89.9357Z" stroke="#164932" stroke-width="4" stroke-linecap="square" stroke-linejoin="round"/>
</g>
<g opacity="0.75">
<path d="M156.668 189.622C137.764 203.853 97.9558 233.699 89.957 239.233L133.055 191.221L156.668 189.622Z" stroke="#CD5137" stroke-width="4" stroke-linecap="square" stroke-linejoin="round"/>
<path d="M134.253 164.651C121.41 185.823 94.4759 230.408 89.4819 239.366L132.81 191.097L134.253 164.651Z" stroke="#CD5137" stroke-width="4" stroke-linecap="square" stroke-linejoin="round"/>
</g>
<g opacity="0.75">
<path d="M235.002 264.337C216.098 278.569 176.29 308.415 168.292 313.948L211.389 265.936L235.002 264.337Z" stroke="#CD5137" stroke-width="4" stroke-linecap="square" stroke-linejoin="round"/>
<path d="M212.587 239.366C199.744 260.539 172.81 305.123 167.816 314.082L211.144 265.813L212.587 239.366Z" stroke="#CD5137" stroke-width="4" stroke-linecap="square" stroke-linejoin="round"/>
</g>
<g opacity="0.75">
<path d="M313.336 339.052C294.432 353.284 254.624 383.13 246.625 388.664L289.723 340.651L313.336 339.052Z" stroke="#CD5137" stroke-width="4" stroke-linecap="square" stroke-linejoin="round"/>
<path d="M290.922 314.082C278.079 335.254 251.145 379.838 246.151 388.797L289.479 340.528L290.922 314.082Z" stroke="#CD5137" stroke-width="4" stroke-linecap="square" stroke-linejoin="round"/>
</g>
<g opacity="0.75">
<path d="M78.3337 201.842C59.4296 216.074 19.6218 245.92 11.623 251.454L54.7207 203.441L78.3337 201.842Z" stroke="#CD5137" stroke-width="4" stroke-linecap="square" stroke-linejoin="round"/>
<path d="M55.9187 176.871C43.0759 198.044 16.1419 242.628 11.1479 251.587L54.4758 203.318L55.9187 176.871Z" stroke="#CD5137" stroke-width="4" stroke-linecap="square" stroke-linejoin="round"/>
</g>
<g opacity="0.75">
<path d="M156.668 276.558C137.764 290.789 97.9558 320.635 89.957 326.169L133.055 278.156L156.668 276.558Z" stroke="#B28529" stroke-width="4" stroke-linecap="square" stroke-linejoin="round"/>
<path d="M134.253 251.587C121.41 272.759 94.4764 317.344 89.4824 326.302L132.81 278.033L134.253 251.587Z" stroke="#B28529" stroke-width="4" stroke-linecap="square" stroke-linejoin="round"/>
</g>
<g opacity="0.75">
<path d="M235.002 351.273C216.098 365.504 176.29 395.35 168.291 400.884L211.389 352.872L235.002 351.273Z" stroke="#0B6345" stroke-width="4" stroke-linecap="square" stroke-linejoin="round"/>
<path d="M212.587 326.302C199.744 347.474 172.81 392.059 167.816 401.017L211.144 352.748L212.587 326.302Z" stroke="#0B6345" stroke-width="4" stroke-linecap="square" stroke-linejoin="round"/>
</g>
<g opacity="0.75">
<path d="M313.336 425.988C294.432 440.22 254.624 470.066 246.625 475.599L289.723 427.587L313.336 425.988Z" stroke="#184832" stroke-width="4" stroke-linecap="square" stroke-linejoin="round"/>
<path d="M290.921 401.017C278.078 422.19 251.144 466.774 246.15 475.732L289.478 427.464L290.921 401.017Z" stroke="#184832" stroke-width="4" stroke-linecap="square" stroke-linejoin="round"/>
</g>
<g opacity="0.75">
<path d="M78.3342 288.778C59.4301 303.01 19.6223 332.856 11.6235 338.389L54.7212 290.377L78.3342 288.778Z" stroke="#0E5135" stroke-width="4" stroke-linecap="square" stroke-linejoin="round"/>
<path d="M55.9192 263.807C43.0764 284.98 16.1424 329.564 11.1484 338.522L54.4763 290.254L55.9192 263.807Z" stroke="#0E5135" stroke-width="4" stroke-linecap="square" stroke-linejoin="round"/>
</g>
<g opacity="0.75">
<path d="M156.669 363.494C137.765 377.725 97.9567 407.571 89.958 413.105L133.056 365.092L156.669 363.494Z" stroke="#CD5137" stroke-width="4" stroke-linecap="square" stroke-linejoin="round"/>
<path d="M134.254 338.522C121.411 359.695 94.4768 404.279 89.4829 413.238L132.811 364.969L134.254 338.522Z" stroke="#CD5137" stroke-width="4" stroke-linecap="square" stroke-linejoin="round"/>
</g>
<g opacity="0.75">
<path d="M235.002 438.209C216.098 452.44 176.29 482.286 168.292 487.82L211.389 439.808L235.002 438.209Z" stroke="#B3862A" stroke-width="4" stroke-linecap="square" stroke-linejoin="round"/>
<path d="M212.588 413.238C199.745 434.41 172.811 478.994 167.817 487.953L211.145 439.684L212.588 413.238Z" stroke="#B3862A" stroke-width="4" stroke-linecap="square" stroke-linejoin="round"/>
</g>
<g opacity="0.75">
<path d="M313.337 512.911C294.433 527.143 254.625 556.989 246.626 562.522L289.724 514.51L313.337 512.911Z" stroke="#CD5137" stroke-width="4" stroke-linecap="square" stroke-linejoin="round"/>
<path d="M290.922 487.94C278.079 509.112 251.145 553.697 246.151 562.655L289.479 514.386L290.922 487.94Z" stroke="#CD5137" stroke-width="4" stroke-linecap="square" stroke-linejoin="round"/>
</g>
<g opacity="0.75">
<path d="M390 343.912C371.096 358.143 331.288 387.989 323.289 393.523L366.387 345.511L390 343.912Z" stroke="#CD5137" stroke-width="4" stroke-linecap="square" stroke-linejoin="round"/>
<path d="M367.585 318.941C354.742 340.113 327.808 384.698 322.814 393.656L366.142 345.387L367.585 318.941Z" stroke="#CD5137" stroke-width="4" stroke-linecap="square" stroke-linejoin="round"/>
</g>
<g opacity="0.75">
<path d="M390 430.847C371.096 445.079 331.288 474.925 323.29 480.458L366.387 432.446L390 430.847Z" stroke="#B28529" stroke-width="4" stroke-linecap="square" stroke-linejoin="round"/>
<path d="M367.585 405.876C354.742 427.049 327.808 471.633 322.814 480.592L366.142 432.323L367.585 405.876Z" stroke="#B28529" stroke-width="4" stroke-linecap="square" stroke-linejoin="round"/>
</g>
<g opacity="0.75">
<path d="M390 517.783C371.096 532.015 331.288 561.861 323.289 567.395L366.387 519.382L390 517.783Z" stroke="#1D6C4D" stroke-width="4" stroke-linecap="square" stroke-linejoin="round"/>
<path d="M367.584 492.812C354.741 513.985 327.807 558.569 322.813 567.527L366.141 519.258L367.584 492.812Z" stroke="#1D6C4D" stroke-width="4" stroke-linecap="square" stroke-linejoin="round"/>
</g>
<g opacity="0.75">
<path d="M390 604.718C371.096 618.95 331.288 648.796 323.289 654.33L366.387 606.317L390 604.718Z" stroke="#B6892D" stroke-width="4" stroke-linecap="square" stroke-linejoin="round"/>
<path d="M367.585 579.747C354.742 600.919 327.808 645.503 322.814 654.462L366.142 606.193L367.585 579.747Z" stroke="#B6892D" stroke-width="4" stroke-linecap="square" stroke-linejoin="round"/>
</g>
</svg>
