<svg width="142" height="25" viewBox="0 0 142 25" fill="none" xmlns="http://www.w3.org/2000/svg">
<path d="M0.0869128 23.7202L0.086914 0.601816L6.0741 0.601816L6.29261 8.03117L5.24376 6.5016C5.59338 5.30707 6.1615 4.22909 6.94814 3.26764C7.73478 2.27706 8.65252 1.50499 9.70137 0.951433C10.7794 0.397874 11.901 0.121094 13.0664 0.121094C13.5617 0.121094 14.0424 0.164797 14.5086 0.252202C14.9748 0.339605 15.3681 0.441576 15.6886 0.558115L14.0279 7.37564C13.6783 7.20083 13.2558 7.05516 12.7605 6.93862C12.2652 6.79295 11.7554 6.72011 11.2309 6.72011C10.5317 6.72011 9.87618 6.85121 9.26435 7.11343C8.68166 7.3465 8.1718 7.69612 7.73478 8.16228C7.29776 8.5993 6.94814 9.12372 6.68593 9.73555C6.45285 10.3474 6.33631 11.0175 6.33631 11.7458L6.33631 23.7202L0.0869128 23.7202Z" fill="black"/>
<path d="M29.2369 24.1572C26.7313 24.1572 24.5462 23.6474 22.6816 22.6277C20.8169 21.6079 19.3602 20.2095 18.3114 18.4323C17.2625 16.655 16.7381 14.6156 16.7381 12.314C16.7381 10.5368 17.0294 8.90521 17.6121 7.41934C18.1948 5.93347 19.0106 4.65154 20.0594 3.57356C21.1083 2.46644 22.3465 1.62153 23.7741 1.03884C25.2309 0.427009 26.8041 0.121095 28.4939 0.121095C30.0672 0.121095 31.524 0.412442 32.8642 0.995136C34.2044 1.5487 35.3552 2.3499 36.3166 3.39875C37.3072 4.41847 38.0647 5.62756 38.5891 7.02602C39.1136 8.42449 39.3466 9.95406 39.2884 11.6147L39.2447 13.5376L20.6713 13.5376L19.6661 9.73555L34.1315 9.73555L33.4323 10.5222L33.4323 9.56075C33.374 8.77411 33.1118 8.06031 32.6456 7.41934C32.2086 6.77838 31.6405 6.28309 30.9413 5.93347C30.242 5.58385 29.4554 5.40905 28.5814 5.40905C27.2994 5.40905 26.2069 5.65669 25.3037 6.15198C24.4297 6.64727 23.7596 7.37564 23.2934 8.33709C22.8272 9.29853 22.5942 10.4639 22.5942 11.8333C22.5942 13.2317 22.8855 14.4408 23.4682 15.4605C24.08 16.4802 24.9249 17.2814 26.0029 17.8641C27.11 18.4177 28.4065 18.6945 29.8924 18.6945C30.9121 18.6945 31.8444 18.5342 32.6893 18.2138C33.5343 17.8933 34.4374 17.3397 35.3989 16.5531L38.3706 20.7048C37.5257 21.4623 36.5934 22.1032 35.5737 22.6277C34.554 23.123 33.5051 23.5017 32.4271 23.7639C31.3492 24.0261 30.2857 24.1572 29.2369 24.1572Z" fill="black"/>
<path d="M53.9258 24.1572C51.7116 24.1572 49.7304 23.6328 47.9823 22.584C46.2343 21.5351 44.8504 20.1075 43.8306 18.3012C42.8401 16.4948 42.3448 14.4408 42.3448 12.1392C42.3448 9.86666 42.8401 7.82723 43.8306 6.02088C44.8504 4.18539 46.2343 2.74322 47.9823 1.69437C49.7304 0.645521 51.7116 0.121096 53.9258 0.121097C55.9944 0.121097 57.8881 0.499848 59.6071 1.25735C61.326 2.01485 62.6662 3.0637 63.6277 4.4039L60.2189 8.5119C59.811 7.95834 59.3012 7.46305 58.6894 7.02602C58.0775 6.55987 57.4074 6.19569 56.6791 5.93347C55.9798 5.67126 55.2515 5.54015 54.494 5.54015C53.2994 5.54015 52.236 5.8315 51.3037 6.4142C50.4005 6.96776 49.6867 7.73982 49.1623 8.7304C48.6379 9.72099 48.3757 10.8572 48.3757 12.1392C48.3757 13.392 48.6379 14.5136 49.1623 15.5042C49.7159 16.4657 50.4588 17.2523 51.3911 17.8641C52.3234 18.4468 53.3723 18.7382 54.5377 18.7382C55.2952 18.7382 56.009 18.6362 56.6791 18.4323C57.3492 18.1992 57.9756 17.8641 58.5582 17.4271C59.1701 16.9901 59.7236 16.4657 60.2189 15.8538L63.584 19.9618C62.5934 21.2146 61.2241 22.2343 59.476 23.021C57.7279 23.7785 55.8779 24.1572 53.9258 24.1572Z" fill="black"/>
<path d="M78.5298 24.1572C76.0242 24.1572 73.8391 23.6474 71.9744 22.6277C70.1098 21.608 68.6531 20.2095 67.6042 18.4323C66.5554 16.655 66.031 14.6156 66.031 12.314C66.031 10.5368 66.3223 8.90521 66.905 7.41934C67.4877 5.93347 68.3035 4.65155 69.3523 3.57356C70.4012 2.46644 71.6394 1.62154 73.067 1.03884C74.5237 0.427012 76.097 0.121098 77.7868 0.121098C79.3601 0.121098 80.8168 0.412445 82.157 0.995139C83.4972 1.5487 84.648 2.3499 85.6095 3.39875C86.6001 4.41847 87.3576 5.62756 87.882 7.02603C88.4064 8.42449 88.6395 9.95407 88.5812 11.6147L88.5375 13.5376L69.9641 13.5376L68.959 9.73555L83.4244 9.73555L82.7252 10.5222L82.7252 9.56075C82.6669 8.77411 82.4047 8.06031 81.9385 7.41934C81.5015 6.77838 80.9334 6.28309 80.2341 5.93347C79.5349 5.58386 78.7483 5.40905 77.8742 5.40905C76.5923 5.40905 75.4997 5.65669 74.5966 6.15198C73.7225 6.64727 73.0524 7.37564 72.5863 8.33709C72.1201 9.29853 71.887 10.4639 71.887 11.8333C71.887 13.2317 72.1784 14.4408 72.7611 15.4605C73.3729 16.4802 74.2178 17.2814 75.2958 17.8641C76.4029 18.4177 77.6994 18.6945 79.1853 18.6945C80.205 18.6945 81.1373 18.5342 81.9822 18.2138C82.8271 17.8933 83.7303 17.3397 84.6917 16.5531L87.6635 20.7048C86.8186 21.4623 85.8863 22.1032 84.8666 22.6277C83.8468 23.123 82.798 23.5017 81.72 23.7639C80.642 24.0261 79.5786 24.1572 78.5298 24.1572Z" fill="black"/>
<path d="M100.946 24.1572C98.7902 24.1572 96.8673 23.8076 95.1775 23.1084C93.5168 22.38 92.1766 21.3894 91.1569 20.1367L95.0027 16.8153C95.9059 17.7767 96.911 18.476 98.0182 18.913C99.1253 19.3209 100.232 19.5248 101.34 19.5248C101.777 19.5248 102.17 19.4811 102.519 19.3937C102.898 19.2772 103.219 19.1315 103.481 18.9567C103.743 18.7528 103.933 18.5197 104.049 18.2575C104.195 17.9661 104.268 17.6602 104.268 17.3397C104.268 16.6988 104.005 16.1889 103.481 15.8101C103.19 15.6645 102.738 15.4897 102.126 15.2857C101.514 15.0526 100.728 14.805 99.7662 14.5428C98.2804 14.164 97.013 13.727 95.9642 13.2317C94.9444 12.7073 94.1287 12.1246 93.5168 11.4836C92.9924 10.8718 92.5845 10.2163 92.2932 9.51705C92.031 8.78868 91.8999 7.98747 91.8999 7.11343C91.8999 6.06458 92.1329 5.1177 92.5991 4.2728C93.0653 3.39875 93.7062 2.65582 94.522 2.04399C95.3669 1.43216 96.3283 0.966006 97.4063 0.645525C98.4843 0.295907 99.6206 0.121099 100.815 0.121099C102.01 0.121099 103.175 0.266773 104.311 0.558119C105.448 0.849466 106.496 1.27192 107.458 1.82548C108.448 2.34991 109.308 2.9763 110.036 3.70467L106.715 7.37564C106.19 6.88035 105.593 6.42877 104.923 6.02088C104.282 5.61299 103.612 5.29251 102.913 5.05943C102.214 4.82636 101.587 4.70982 101.034 4.70982C100.538 4.70982 100.087 4.75352 99.6788 4.84092C99.3001 4.92833 98.9796 5.05943 98.7174 5.23424C98.4552 5.40905 98.2512 5.64213 98.1056 5.93348C97.989 6.19569 97.9307 6.48703 97.9307 6.80752C97.9307 7.128 98.0036 7.43391 98.1493 7.72526C98.3241 8.01661 98.5571 8.26425 98.8485 8.4682C99.169 8.643 99.6351 8.84695 100.247 9.08003C100.888 9.3131 101.747 9.57532 102.825 9.86666C104.224 10.2454 105.404 10.6679 106.365 11.134C107.356 11.6002 108.142 12.1392 108.725 12.751C109.22 13.2754 109.585 13.8727 109.818 14.5428C110.051 15.2129 110.167 15.9558 110.167 16.7716C110.167 18.1992 109.759 19.4811 108.944 20.6174C108.157 21.7245 107.064 22.5985 105.666 23.2395C104.268 23.8513 102.694 24.1572 100.946 24.1572Z" fill="black"/>
<path d="M122.37 24.1572C120.214 24.1572 118.292 23.8076 116.602 23.1084C114.941 22.38 113.601 21.3894 112.581 20.1367L116.427 16.8153C117.33 17.7767 118.335 18.476 119.442 18.913C120.55 19.3209 121.657 19.5248 122.764 19.5248C123.201 19.5248 123.594 19.4811 123.944 19.3937C124.322 19.2772 124.643 19.1315 124.905 18.9567C125.167 18.7528 125.357 18.5197 125.473 18.2575C125.619 17.9661 125.692 17.6602 125.692 17.3397C125.692 16.6988 125.43 16.1889 124.905 15.8101C124.614 15.6645 124.162 15.4897 123.55 15.2857C122.939 15.0526 122.152 14.805 121.19 14.5428C119.705 14.164 118.437 13.727 117.388 13.2317C116.369 12.7073 115.553 12.1246 114.941 11.4836C114.417 10.8718 114.009 10.2163 113.717 9.51705C113.455 8.78868 113.324 7.98747 113.324 7.11343C113.324 6.06458 113.557 5.1177 114.023 4.2728C114.49 3.39876 115.13 2.65582 115.946 2.04399C116.791 1.43216 117.753 0.966007 118.831 0.645526C119.909 0.295909 121.045 0.1211 122.239 0.1211C123.434 0.1211 124.599 0.266774 125.736 0.558121C126.872 0.849468 127.921 1.27192 128.882 1.82548C129.873 2.34991 130.732 2.9763 131.46 3.70467L128.139 7.37565C127.615 6.88035 127.017 6.42877 126.347 6.02088C125.706 5.61299 125.036 5.29251 124.337 5.05944C123.638 4.82636 123.011 4.70982 122.458 4.70982C121.963 4.70982 121.511 4.75352 121.103 4.84092C120.724 4.92833 120.404 5.05943 120.142 5.23424C119.879 5.40905 119.675 5.64213 119.53 5.93348C119.413 6.19569 119.355 6.48704 119.355 6.80752C119.355 7.128 119.428 7.43391 119.574 7.72526C119.748 8.01661 119.981 8.26426 120.273 8.4682C120.593 8.64301 121.059 8.84695 121.671 9.08003C122.312 9.3131 123.172 9.57532 124.25 9.86666C125.648 10.2454 126.828 10.6679 127.79 11.134C128.78 11.6002 129.567 12.1392 130.149 12.751C130.645 13.2754 131.009 13.8727 131.242 14.5428C131.475 15.2129 131.592 15.9558 131.592 16.7716C131.592 18.1992 131.184 19.4811 130.368 20.6174C129.581 21.7245 128.489 22.5985 127.09 23.2395C125.692 23.8513 124.119 24.1572 122.37 24.1572Z" fill="black"/>
<path d="M138.332 24.2009C137.196 24.2009 136.322 23.8805 135.71 23.2395C135.098 22.5985 134.792 21.6808 134.792 20.4863C134.792 19.4083 135.113 18.5342 135.754 17.8641C136.424 17.1649 137.283 16.8153 138.332 16.8153C139.439 16.8153 140.299 17.1358 140.91 17.7767C141.522 18.4177 141.828 19.3209 141.828 20.4863C141.828 21.5934 141.508 22.4966 140.867 23.1958C140.226 23.8659 139.381 24.2009 138.332 24.2009Z" fill="black"/>
</svg>
